<svg width="176" height="103" viewBox="0 0 176 103" fill="none" xmlns="http://www.w3.org/2000/svg">
<g clip-path="url(#clip0_2811_53948)">
<path opacity="0.6" d="M1.90234 69.4688C4.68729 81.5086 10.5829 91.9157 19.9002 96.9604C39.2633 107.444 82.9317 102.038 115.524 95.825C131.992 92.6958 146.941 84.0526 157.962 71.2859L1.90234 69.4688Z" fill="#F2F4F7"/>
<path opacity="0.6" d="M172.808 12.8024H154.925C154.516 12.8024 154.122 12.6377 153.832 12.3445C153.543 12.0513 153.38 11.6537 153.38 11.239C153.38 10.8244 153.543 10.4268 153.832 10.1336C154.122 9.84035 154.516 9.67567 154.925 9.67567H158.017C157.607 9.67567 157.214 9.51093 156.924 9.21773C156.634 8.92453 156.471 8.52687 156.471 8.11224C156.471 7.6976 156.634 7.3 156.924 7.0068C157.214 6.7136 157.607 6.54886 158.017 6.54886H155.809C155.4 6.54886 155.006 6.38418 154.716 6.09098C154.426 5.79778 154.264 5.40012 154.264 4.98548C154.264 4.57085 154.426 4.17319 154.716 3.88C155.006 3.58681 155.4 3.4221 155.809 3.4221H165.143C163.072 2.44853 160.651 1.75567 157.863 1.39221C132.413 -1.91467 123.327 0.272607 120.121 2.52804C116.167 5.30271 111.756 7.34395 107.041 8.32725C91.3385 11.6033 61.9731 15.5463 35.3575 7.06486C22.129 2.84607 12.2966 9.97262 6.4043 21.8761H175.912C175.691 18.4167 175.028 15.2233 173.812 12.426C173.533 12.6692 173.176 12.8028 172.808 12.8024Z" fill="#F2F4F7"/>
<path opacity="0.6" d="M0.385 44.3438C-0.301915 51.3456 -0.0688796 58.4086 1.07802 65.3482L158.081 71.156C162.451 66.071 166.121 60.4106 168.99 54.3293L0.385 44.3438ZM62.4817 59.3285H59.3901C59.8 59.3285 60.1931 59.4936 60.4832 59.7862C60.7732 60.0794 60.9359 60.4774 60.9359 60.8917C60.9359 61.3066 60.7732 61.704 60.4832 61.9972C60.1931 62.2904 59.8 62.4554 59.3901 62.4554H41.5078C41.0979 62.4554 40.7047 62.2904 40.4148 61.9972C40.125 61.704 39.9622 61.3066 39.9622 60.8917C39.9622 60.4774 40.125 60.0794 40.4148 59.7862C40.7047 59.4936 41.0979 59.3285 41.5078 59.3285H44.5992C44.1892 59.3285 43.7961 59.1641 43.5062 58.8709C43.2163 58.5777 43.0535 58.1798 43.0535 57.7652C43.0535 57.3505 43.2163 56.9529 43.5062 56.6597C43.7961 56.3665 44.1892 56.2018 44.5992 56.2018H42.3918C41.9818 56.2018 41.5887 56.0371 41.2988 55.7439C41.0089 55.4507 40.846 55.0531 40.846 54.6384C40.846 54.2238 41.0089 53.8261 41.2988 53.5329C41.5887 53.2397 41.9818 53.075 42.3918 53.075H60.2742C60.6841 53.075 61.0772 53.2397 61.3672 53.5329C61.6567 53.8261 61.82 54.2238 61.82 54.6384C61.82 55.0531 61.6567 55.4507 61.3672 55.7439C61.0772 56.0371 60.6841 56.2018 60.2742 56.2018H62.4817C62.8916 56.2018 63.2847 56.3665 63.5742 56.6597C63.8642 56.9529 64.0269 57.3505 64.0269 57.7652C64.0269 58.1798 63.8642 58.5777 63.5742 58.8709C63.2847 59.1641 62.8916 59.3285 62.4817 59.3285Z" fill="#F2F4F7"/>
<path opacity="0.6" d="M175.921 21.9844L4.51057 26.2032C2.42667 31.6227 1.05185 37.7513 0.410156 44.1055H172.918C174.044 40.3739 174.877 36.558 175.409 32.6936C175.923 28.9584 176.128 25.3481 175.921 21.9844ZM35.2091 35.8026H32.1178C32.5277 35.8026 32.9208 35.9673 33.2107 36.2605C33.5006 36.5537 33.6634 36.9513 33.6634 37.366C33.6634 37.7806 33.5006 38.1783 33.2107 38.4715C32.9208 38.7647 32.5277 38.9293 32.1178 38.9293H14.2354C13.8254 38.9293 13.4323 38.7647 13.1425 38.4715C12.8526 38.1783 12.6897 37.7806 12.6897 37.366C12.6897 36.9513 12.8526 36.5537 13.1425 36.2605C13.4323 35.9673 13.8254 35.8026 14.2354 35.8026H17.3267C16.9168 35.8026 16.5237 35.6378 16.2338 35.3446C15.9439 35.0514 15.7811 34.6538 15.7811 34.2392C15.7811 33.8245 15.9439 33.4269 16.2338 33.1337C16.5237 32.8405 16.9168 32.6758 17.3267 32.6758H15.1193C14.7094 32.6758 14.3162 32.5111 14.0264 32.2179C13.7365 31.9247 13.5737 31.527 13.5737 31.1124C13.5737 30.6978 13.7365 30.3001 14.0264 30.0069C14.3162 29.7137 14.7094 29.549 15.1193 29.549H33.0017C33.4116 29.549 33.8047 29.7137 34.0946 30.0069C34.3845 30.3001 34.5474 30.6978 34.5474 31.1124C34.5474 31.527 34.3845 31.9247 34.0946 32.2179C33.8047 32.5111 33.4116 32.6758 33.0017 32.6758H35.2091C35.619 32.6758 36.0122 32.8405 36.302 33.1337C36.5919 33.4269 36.7548 33.8245 36.7548 34.2392C36.7548 34.6538 36.5919 35.0514 36.302 35.3446C36.0122 35.6378 35.619 35.8026 35.2091 35.8026Z" fill="#F2F4F7"/>
</g>
<path fill-rule="evenodd" clip-rule="evenodd" d="M84 25.9996C78.1652 25.9996 72.5695 28.3174 68.4437 32.4432C64.3179 36.569 62 42.1648 62 47.9996C62 53.8344 64.3179 59.4301 68.4437 63.5559C72.5695 67.6817 78.1652 69.9996 84 69.9996C89.8348 69.9996 95.4305 67.6817 99.5564 63.5559C103.682 59.4301 106 53.8344 106 47.9996C106 42.1648 103.682 36.569 99.5564 32.4432C95.4305 28.3174 89.8348 25.9996 84 25.9996ZM56 47.9996C56.0004 43.5223 57.0744 39.1103 59.1321 35.1338C61.1898 31.1574 64.171 27.7323 67.8258 25.146C71.4806 22.5597 75.7023 20.8875 80.1368 20.2697C84.5713 19.652 89.0893 20.1067 93.3118 21.5957C97.5342 23.0847 101.338 25.5645 104.404 28.8273C107.47 32.09 109.709 36.0404 110.933 40.3472C112.157 44.6539 112.331 49.1914 111.439 53.579C110.547 57.9666 108.616 62.0764 105.808 65.5636L119.12 78.8796C119.415 79.1542 119.651 79.4854 119.815 79.8534C119.979 80.2214 120.067 80.6187 120.074 81.0215C120.081 81.4243 120.007 81.8244 119.856 82.198C119.706 82.5715 119.481 82.9109 119.196 83.1957C118.911 83.4806 118.572 83.7052 118.198 83.8561C117.825 84.007 117.425 84.0811 117.022 84.074C116.619 84.0668 116.222 83.9787 115.854 83.8147C115.486 83.6508 115.155 83.4143 114.88 83.1196L101.564 69.8076C97.4502 73.1211 92.483 75.2034 87.236 75.8139C81.9891 76.4244 76.6765 75.5382 71.9118 73.2577C67.1471 70.9772 63.1247 67.3954 60.3091 62.926C57.4935 58.4566 55.9996 53.2819 56 47.9996Z" fill="#98A2B3"/>
<defs>
<clipPath id="clip0_2811_53948">
<rect width="176" height="103" fill="white"/>
</clipPath>
</defs>
</svg>
